<?xml version="1.0" encoding="utf-8"?>
<!-- Generator: Adobe Illustrator 19.2.1, SVG Export Plug-In . SVG Version: 6.00 Build 0)  -->
<svg version="1.1" id="Layer_1" xmlns="http://www.w3.org/2000/svg" xmlns:xlink="http://www.w3.org/1999/xlink" x="0px" y="0px"
	 viewBox="0 0 300 300" style="enable-background:new 0 0 300 300;" xml:space="preserve">
<style type="text/css">
	.st0{fill:#373F49;}
	.st1{fill:none;}
	.st2{fill:#FFFFFF;}
	.st3{enable-background:new    ;}
</style>
<circle class="st0" cx="150.5" cy="150.1" r="149.5"/>
<g>
	<g>
		<path class="st1" d="M163.9,102L163.9,102l19.2,0.1c-1.1-11.5-10.8-20.6-22.7-20.6l-18-0.1c-11.8,0-21.6,9-22.8,20.5L163.9,102z"
			/>
		<path class="st1" d="M111.3,190l0.2-80c-11.6,1-20.7,10.8-20.7,22.6l-0.1,34.7C90.7,179.1,99.7,188.9,111.3,190z"/>
		<path class="st1" d="M191.2,121.9c0,5.2,4.2,9.4,9.4,9.4h0.2c5.2,0,9.4-4.2,9.5-9.4v-2.4c0-5.2-4.2-9.4-9.4-9.4h-9.6L191.2,121.9z
			"/>
		<path class="st1" d="M163.6,198.3L163.6,198.3l-44.2-0.1c1.1,11.5,10.8,20.5,22.6,20.6l18,0.1c11.8,0,21.5-9,22.7-20.5
			L163.6,198.3z"/>
		<path class="st1" d="M200.8,169.2c-5.4,0-9.6,4.2-9.7,9.4l-0.1,11.8h9.5l0.2,4.1v-4.1c5.2,0,9.4-4.2,9.5-9.3v-2.4
			C210.1,173.5,205.9,169.2,200.8,169.2z"/>
		<path class="st2" d="M200.5,161.2c-9.6,0-17.4,7.8-17.5,17.4l-0.1,11.8h-63.5l0.1-80.4h63.6v11.9c0,9.6,7.8,17.5,17.4,17.5h0.2
			c9.6,0,17.4-7.8,17.5-17.4v-2.4c0.1-9.6-7.8-17.5-17.6-17.5h-9.5c-1.1-15.9-14.4-28.6-30.7-28.7h-18.1
			c-16.3,0-29.6,12.6-30.8,28.6c-16,1-28.8,14.3-28.9,30.7l0,0l-0.1,34.7l0,0c0,16.3,12.7,29.7,28.7,30.8
			c1.1,16,14.4,28.7,30.7,28.7L160,227c16.2,0,29.6-12.6,30.8-28.5h9.8c9.6,0,17.5-7.8,17.5-17.4v-2.4
			C218.2,169.1,210.4,161.2,200.5,161.2z M111.3,110v80c-11.6-1.1-20.6-10.9-20.5-22.8l0.1-34.7C90.9,120.8,99.7,111,111.3,110z
			 M200.9,110.1c5.2,0,9.4,4.3,9.4,9.4v2.4c0,5.2-4.3,9.4-9.5,9.4h-0.2c-5.2,0-9.4-4.2-9.4-9.4v-11.8H200.9z M142.5,81.3l18,0.1
			c11.9,0,21.6,8.9,22.7,20.5h-63.5C120.9,90.3,130.6,81.3,142.5,81.3z M160.1,218.9l-18-0.1c-11.8,0-21.5-8.9-22.6-20.4h63.4
			C181.7,209.9,171.9,218.9,160.1,218.9z M210.1,181.1c0,5.2-4.3,9.4-9.5,9.3h-0.2H191v-11.8c0-5.2,4.2-9.4,9.7-9.4
			c5.2,0,9.4,4.3,9.4,9.4L210.1,181.1L210.1,181.1z"/>
	</g>
</g>
</svg>
